<svg xmlns="http://www.w3.org/2000/svg" viewBox="0 0 1400 1000">
  <defs>
    <linearGradient id="headerGrad" x1="0%" y1="0%" x2="100%" y2="0%">
      <stop offset="0%" style="stop-color:#1F4E79"/>
      <stop offset="100%" style="stop-color:#2E75B6"/>
    </linearGradient>
    <linearGradient id="hsGrad" x1="0%" y1="0%" x2="0%" y2="100%">
      <stop offset="0%" style="stop-color:#E3F2FD"/>
      <stop offset="100%" style="stop-color:#BBDEFB"/>
    </linearGradient>
    <linearGradient id="stGrad" x1="0%" y1="0%" x2="0%" y2="100%">
      <stop offset="0%" style="stop-color:#F3E5F5"/>
      <stop offset="100%" style="stop-color:#E1BEE7"/>
    </linearGradient>
    <filter id="shadow" x="-20%" y="-20%" width="140%" height="140%">
      <feDropShadow dx="2" dy="2" stdDeviation="3" flood-opacity="0.2"/>
    </filter>
    <marker id="arrowhead" markerWidth="10" markerHeight="7" refX="9" refY="3.5" orient="auto">
      <polygon points="0 0, 10 3.5, 0 7" fill="#1F4E79"/>
    </marker>
  </defs>
  
  <!-- Background -->
  <rect width="1400" height="1000" fill="#FAFBFC"/>
  
  <!-- Header -->
  <rect x="0" y="0" width="1400" height="80" fill="url(#headerGrad)"/>
  <text x="700" y="35" font-family="Arial, sans-serif" font-size="24" font-weight="bold" fill="white" text-anchor="middle">Permissions Seeking – Tier-Based Workflow Overview</text>
  <text x="700" y="60" font-family="Arial, sans-serif" font-size="14" fill="#B8D4E8" text-anchor="middle">Responsibility Distribution by Tier (HS &amp; S&amp;T Divisions)</text>
  
  <!-- Column Headers -->
  <rect x="50" y="100" width="200" height="50" rx="5" fill="#37474F"/>
  <text x="150" y="132" font-family="Arial" font-size="14" font-weight="bold" fill="white" text-anchor="middle">TIER</text>
  
  <rect x="260" y="100" width="280" height="50" rx="5" fill="#37474F"/>
  <text x="400" y="132" font-family="Arial" font-size="14" font-weight="bold" fill="white" text-anchor="middle">WHO CREATES LOG?</text>
  
  <rect x="550" y="100" width="280" height="50" rx="5" fill="#37474F"/>
  <text x="690" y="132" font-family="Arial" font-size="14" font-weight="bold" fill="white" text-anchor="middle">WHO SEEKS PERMISSIONS?</text>
  
  <rect x="840" y="100" width="280" height="50" rx="5" fill="#37474F"/>
  <text x="980" y="132" font-family="Arial" font-size="14" font-weight="bold" fill="white" text-anchor="middle">CS ROLE</text>
  
  <rect x="1130" y="100" width="220" height="50" rx="5" fill="#37474F"/>
  <text x="1240" y="132" font-family="Arial" font-size="14" font-weight="bold" fill="white" text-anchor="middle">VOLUME</text>
  
  <!-- HS Section Header -->
  <rect x="50" y="165" width="1300" height="40" rx="5" fill="#1565C0" filter="url(#shadow)"/>
  <text x="700" y="192" font-family="Arial" font-size="16" font-weight="bold" fill="white" text-anchor="middle">HEALTH SCIENCES (HS) DIVISION</text>
  
  <!-- HS Tier 4 -->
  <rect x="50" y="215" width="200" height="90" rx="5" fill="url(#hsGrad)" stroke="#1565C0" stroke-width="2" filter="url(#shadow)"/>
  <text x="150" y="250" font-family="Arial" font-size="14" font-weight="bold" fill="#1565C0" text-anchor="middle">Tier 4</text>
  <text x="150" y="275" font-family="Arial" font-size="12" fill="#333" text-anchor="middle">(Full Service)</text>
  
  <rect x="260" y="215" width="280" height="90" rx="5" fill="white" stroke="#1565C0" stroke-width="1"/>
  <rect x="275" y="235" width="100" height="30" rx="15" fill="#FF9800"/>
  <text x="325" y="256" font-family="Arial" font-size="11" font-weight="bold" fill="white" text-anchor="middle">Vendor</text>
  <text x="400" y="285" font-family="Arial" font-size="10" fill="#666" text-anchor="middle">(validated by publishing team)</text>
  
  <rect x="550" y="215" width="280" height="90" rx="5" fill="white" stroke="#1565C0" stroke-width="1"/>
  <rect x="635" y="235" width="110" height="30" rx="15" fill="#4CAF50"/>
  <text x="690" y="256" font-family="Arial" font-size="11" font-weight="bold" fill="white" text-anchor="middle">CS Team</text>
  <text x="690" y="285" font-family="Arial" font-size="10" fill="#666" text-anchor="middle">(full permissions seeking)</text>
  
  <rect x="840" y="215" width="280" height="90" rx="5" fill="white" stroke="#1565C0" stroke-width="1"/>
  <text x="980" y="250" font-family="Arial" font-size="11" fill="#333" text-anchor="middle">• Analyze &amp; seek permissions</text>
  <text x="980" y="270" font-family="Arial" font-size="11" fill="#333" text-anchor="middle">• Track &amp; follow up</text>
  <text x="980" y="290" font-family="Arial" font-size="11" fill="#333" text-anchor="middle">• Upload to RPC</text>
  
  <rect x="1130" y="215" width="220" height="90" rx="5" fill="#E3F2FD" stroke="#1565C0" stroke-width="1"/>
  <text x="1240" y="265" font-family="Arial" font-size="14" font-weight="bold" fill="#1565C0" text-anchor="middle">770/year</text>
  
  <!-- HS Tier 0 -->
  <rect x="50" y="315" width="200" height="90" rx="5" fill="url(#hsGrad)" stroke="#1565C0" stroke-width="2" filter="url(#shadow)"/>
  <text x="150" y="350" font-family="Arial" font-size="14" font-weight="bold" fill="#1565C0" text-anchor="middle">Tier 0</text>
  <text x="150" y="375" font-family="Arial" font-size="12" fill="#333" text-anchor="middle">(Validation Only)</text>
  
  <rect x="260" y="315" width="280" height="90" rx="5" fill="white" stroke="#1565C0" stroke-width="1"/>
  <rect x="285" y="335" width="110" height="30" rx="15" fill="#2196F3"/>
  <text x="340" y="356" font-family="Arial" font-size="11" font-weight="bold" fill="white" text-anchor="middle">CDS/Author</text>
  
  <rect x="550" y="315" width="280" height="90" rx="5" fill="white" stroke="#1565C0" stroke-width="1"/>
  <rect x="600" y="335" width="110" height="30" rx="15" fill="#2196F3"/>
  <text x="655" y="356" font-family="Arial" font-size="11" font-weight="bold" fill="white" text-anchor="middle">CDS/Author</text>
  <text x="690" y="385" font-family="Arial" font-size="10" fill="#666" text-anchor="middle">(obtains all permissions)</text>
  
  <rect x="840" y="315" width="280" height="90" rx="5" fill="white" stroke="#1565C0" stroke-width="1"/>
  <text x="980" y="350" font-family="Arial" font-size="11" fill="#333" text-anchor="middle">• Validate log completeness</text>
  <text x="980" y="370" font-family="Arial" font-size="11" fill="#333" text-anchor="middle">• Check license adequacy</text>
  <text x="980" y="390" font-family="Arial" font-size="11" fill="#333" text-anchor="middle">• Upload to RPC</text>
  
  <rect x="1130" y="315" width="220" height="90" rx="5" fill="#E3F2FD" stroke="#1565C0" stroke-width="1"/>
  <text x="1240" y="365" font-family="Arial" font-size="12" fill="#666" text-anchor="middle">Included in HS</text>
  
  <!-- HS Rule of 10 -->
  <rect x="50" y="415" width="200" height="90" rx="5" fill="url(#hsGrad)" stroke="#1565C0" stroke-width="2" filter="url(#shadow)"/>
  <text x="150" y="450" font-family="Arial" font-size="14" font-weight="bold" fill="#1565C0" text-anchor="middle">Rule of 10</text>
  <text x="150" y="475" font-family="Arial" font-size="12" fill="#333" text-anchor="middle">(Assessment Only)</text>
  
  <rect x="260" y="415" width="280" height="90" rx="5" fill="white" stroke="#1565C0" stroke-width="1"/>
  <text x="400" y="465" font-family="Arial" font-size="11" fill="#999" text-anchor="middle">N/A - No log needed</text>
  
  <rect x="550" y="415" width="280" height="90" rx="5" fill="white" stroke="#1565C0" stroke-width="1"/>
  <text x="690" y="465" font-family="Arial" font-size="11" fill="#999" text-anchor="middle">N/A - No seeking</text>
  
  <rect x="840" y="415" width="280" height="90" rx="5" fill="white" stroke="#1565C0" stroke-width="1"/>
  <text x="980" y="450" font-family="Arial" font-size="11" fill="#333" text-anchor="middle">• Count items from single source</text>
  <text x="980" y="470" font-family="Arial" font-size="11" fill="#333" text-anchor="middle">• Verify ≤10 items per book</text>
  <text x="980" y="490" font-family="Arial" font-size="11" fill="#333" text-anchor="middle">• Document &amp; inform if exceeded</text>
  
  <rect x="1130" y="415" width="220" height="90" rx="5" fill="#E3F2FD" stroke="#1565C0" stroke-width="1"/>
  <text x="1240" y="465" font-family="Arial" font-size="12" fill="#666" text-anchor="middle">Included in HS</text>
  
  <!-- S&T Section Header -->
  <rect x="50" y="525" width="1300" height="40" rx="5" fill="#7B1FA2" filter="url(#shadow)"/>
  <text x="700" y="552" font-family="Arial" font-size="16" font-weight="bold" fill="white" text-anchor="middle">SCIENCE &amp; TECHNOLOGY (S&amp;T) DIVISION</text>
  
  <!-- S&T Tier 1 -->
  <rect x="50" y="575" width="200" height="90" rx="5" fill="url(#stGrad)" stroke="#7B1FA2" stroke-width="2" filter="url(#shadow)"/>
  <text x="150" y="610" font-family="Arial" font-size="14" font-weight="bold" fill="#7B1FA2" text-anchor="middle">Tier 1</text>
  <text x="150" y="635" font-family="Arial" font-size="12" fill="#333" text-anchor="middle">(Author Obtains)</text>
  
  <rect x="260" y="575" width="280" height="90" rx="5" fill="white" stroke="#7B1FA2" stroke-width="1"/>
  <rect x="330" y="595" width="80" height="30" rx="15" fill="#9C27B0"/>
  <text x="370" y="616" font-family="Arial" font-size="11" font-weight="bold" fill="white" text-anchor="middle">Author</text>
  <text x="400" y="645" font-family="Arial" font-size="10" fill="#666" text-anchor="middle">(chapter-level)</text>
  
  <rect x="550" y="575" width="280" height="90" rx="5" fill="white" stroke="#7B1FA2" stroke-width="1"/>
  <rect x="620" y="595" width="80" height="30" rx="15" fill="#9C27B0"/>
  <text x="660" y="616" font-family="Arial" font-size="11" font-weight="bold" fill="white" text-anchor="middle">Author</text>
  <text x="690" y="645" font-family="Arial" font-size="10" fill="#666" text-anchor="middle">(provides log + licenses)</text>
  
  <rect x="840" y="575" width="280" height="90" rx="5" fill="white" stroke="#7B1FA2" stroke-width="1"/>
  <text x="980" y="610" font-family="Arial" font-size="11" fill="#333" text-anchor="middle">• Manage Chapter Tracker</text>
  <text x="980" y="630" font-family="Arial" font-size="11" fill="#333" text-anchor="middle">• Validate &amp; collate chapters</text>
  <text x="980" y="650" font-family="Arial" font-size="11" fill="#333" text-anchor="middle">• Send reminders/chasers</text>
  
  <rect x="1130" y="575" width="220" height="90" rx="5" fill="#F3E5F5" stroke="#7B1FA2" stroke-width="1"/>
  <text x="1240" y="625" font-family="Arial" font-size="14" font-weight="bold" fill="#7B1FA2" text-anchor="middle">1,480/year</text>
  
  <!-- S&T Tier 2 -->
  <rect x="50" y="675" width="200" height="90" rx="5" fill="url(#stGrad)" stroke="#7B1FA2" stroke-width="2" filter="url(#shadow)"/>
  <text x="150" y="710" font-family="Arial" font-size="14" font-weight="bold" fill="#7B1FA2" text-anchor="middle">Tier 2</text>
  <text x="150" y="735" font-family="Arial" font-size="12" fill="#333" text-anchor="middle">(CS Seeks)</text>
  
  <rect x="260" y="675" width="280" height="90" rx="5" fill="white" stroke="#7B1FA2" stroke-width="1"/>
  <rect x="330" y="695" width="80" height="30" rx="15" fill="#9C27B0"/>
  <text x="370" y="716" font-family="Arial" font-size="11" font-weight="bold" fill="white" text-anchor="middle">Author</text>
  <text x="400" y="745" font-family="Arial" font-size="10" fill="#666" text-anchor="middle">(via ELSA or email)</text>
  
  <rect x="550" y="675" width="280" height="90" rx="5" fill="white" stroke="#7B1FA2" stroke-width="1"/>
  <rect x="635" y="695" width="110" height="30" rx="15" fill="#4CAF50"/>
  <text x="690" y="716" font-family="Arial" font-size="11" font-weight="bold" fill="white" text-anchor="middle">CS Team</text>
  <text x="690" y="745" font-family="Arial" font-size="10" fill="#666" text-anchor="middle">(after ELSA export conversion)</text>
  
  <rect x="840" y="675" width="280" height="90" rx="5" fill="white" stroke="#7B1FA2" stroke-width="1"/>
  <text x="980" y="710" font-family="Arial" font-size="11" fill="#333" text-anchor="middle">• Convert ELSA → RPC format</text>
  <text x="980" y="730" font-family="Arial" font-size="11" fill="#333" text-anchor="middle">• Seek permissions</text>
  <text x="980" y="750" font-family="Arial" font-size="11" fill="#333" text-anchor="middle">• Upload to RPC</text>
  
  <rect x="1130" y="675" width="220" height="90" rx="5" fill="#F3E5F5" stroke="#7B1FA2" stroke-width="1"/>
  <text x="1240" y="725" font-family="Arial" font-size="12" fill="#666" text-anchor="middle">Included in S&amp;T</text>
  
  <!-- S&T Tier 3 -->
  <rect x="50" y="775" width="200" height="90" rx="5" fill="url(#stGrad)" stroke="#7B1FA2" stroke-width="2" filter="url(#shadow)"/>
  <text x="150" y="810" font-family="Arial" font-size="14" font-weight="bold" fill="#7B1FA2" text-anchor="middle">Tier 3</text>
  <text x="150" y="835" font-family="Arial" font-size="12" fill="#333" text-anchor="middle">(Full Service)</text>
  
  <rect x="260" y="775" width="280" height="90" rx="5" fill="white" stroke="#7B1FA2" stroke-width="1"/>
  <rect x="335" y="795" width="110" height="30" rx="15" fill="#4CAF50"/>
  <text x="390" y="816" font-family="Arial" font-size="11" font-weight="bold" fill="white" text-anchor="middle">CS Team</text>
  <text x="400" y="845" font-family="Arial" font-size="10" fill="#666" text-anchor="middle">(creates from manuscript)</text>
  
  <rect x="550" y="775" width="280" height="90" rx="5" fill="white" stroke="#7B1FA2" stroke-width="1"/>
  <rect x="635" y="795" width="110" height="30" rx="15" fill="#4CAF50"/>
  <text x="690" y="816" font-family="Arial" font-size="11" font-weight="bold" fill="white" text-anchor="middle">CS Team</text>
  <text x="690" y="845" font-family="Arial" font-size="10" fill="#666" text-anchor="middle">(full permissions seeking)</text>
  
  <rect x="840" y="775" width="280" height="90" rx="5" fill="white" stroke="#7B1FA2" stroke-width="1"/>
  <text x="980" y="810" font-family="Arial" font-size="11" fill="#333" text-anchor="middle">• Review manuscript</text>
  <text x="980" y="830" font-family="Arial" font-size="11" fill="#333" text-anchor="middle">• Create permission log</text>
  <text x="980" y="850" font-family="Arial" font-size="11" fill="#333" text-anchor="middle">• Seek &amp; upload to RPC</text>
  
  <rect x="1130" y="775" width="220" height="90" rx="5" fill="#F3E5F5" stroke="#7B1FA2" stroke-width="1"/>
  <text x="1240" y="825" font-family="Arial" font-size="12" fill="#666" text-anchor="middle">Included in S&amp;T</text>
  
  <!-- Legend -->
  <rect x="50" y="890" width="1300" height="60" rx="5" fill="white" stroke="#E0E0E0" stroke-width="1"/>
  <text x="80" y="915" font-family="Arial" font-size="12" font-weight="bold" fill="#333">LEGEND:</text>
  
  <rect x="160" y="902" width="80" height="25" rx="12" fill="#FF9800"/>
  <text x="200" y="920" font-family="Arial" font-size="10" font-weight="bold" fill="white" text-anchor="middle">Vendor</text>
  
  <rect x="260" y="902" width="110" height="25" rx="12" fill="#2196F3"/>
  <text x="315" y="920" font-family="Arial" font-size="10" font-weight="bold" fill="white" text-anchor="middle">CDS/Author</text>
  
  <rect x="390" y="902" width="80" height="25" rx="12" fill="#9C27B0"/>
  <text x="430" y="920" font-family="Arial" font-size="10" font-weight="bold" fill="white" text-anchor="middle">Author</text>
  
  <rect x="490" y="902" width="110" height="25" rx="12" fill="#4CAF50"/>
  <text x="545" y="920" font-family="Arial" font-size="10" font-weight="bold" fill="white" text-anchor="middle">CS Team</text>
  
  <text x="650" y="928" font-family="Arial" font-size="11" fill="#333">|</text>
  
  <text x="700" y="920" font-family="Arial" font-size="11" fill="#333">CDS = Content Development Specialist</text>
  <text x="980" y="920" font-family="Arial" font-size="11" fill="#333">CS = Copyrights Specialist</text>
  <text x="1200" y="920" font-family="Arial" font-size="11" fill="#333">RPC = Rights &amp; Permissions Collector</text>
  
  <!-- Footer -->
  <text x="700" y="975" font-family="Arial" font-size="11" fill="#666" text-anchor="middle">Publishing Services – Permissions Seeking | Tier-Based Workflow Overview | December 2025</text>
</svg>
