<svg xmlns="http://www.w3.org/2000/svg" viewBox="0 0 1400 950">
  <defs>
    <linearGradient id="headerGrad" x1="0%" y1="0%" x2="100%" y2="0%">
      <stop offset="0%" style="stop-color:#1F4E79"/>
      <stop offset="100%" style="stop-color:#2E75B6"/>
    </linearGradient>
    <linearGradient id="inputGrad" x1="0%" y1="0%" x2="0%" y2="100%">
      <stop offset="0%" style="stop-color:#E3F2FD"/>
      <stop offset="100%" style="stop-color:#BBDEFB"/>
    </linearGradient>
    <linearGradient id="processGrad" x1="0%" y1="0%" x2="0%" y2="100%">
      <stop offset="0%" style="stop-color:#FFF8E1"/>
      <stop offset="100%" style="stop-color:#FFECB3"/>
    </linearGradient>
    <linearGradient id="outputGrad" x1="0%" y1="0%" x2="0%" y2="100%">
      <stop offset="0%" style="stop-color:#E8F5E9"/>
      <stop offset="100%" style="stop-color:#C8E6C9"/>
    </linearGradient>
    <filter id="shadow" x="-20%" y="-20%" width="140%" height="140%">
      <feDropShadow dx="2" dy="2" stdDeviation="3" flood-opacity="0.2"/>
    </filter>
    <marker id="arrowhead" markerWidth="10" markerHeight="7" refX="9" refY="3.5" orient="auto">
      <polygon points="0 0, 10 3.5, 0 7" fill="#1F4E79"/>
    </marker>
    <marker id="arrowDown" markerWidth="10" markerHeight="7" refX="3.5" refY="7" orient="auto">
      <polygon points="0 0, 3.5 7, 7 0" fill="#1F4E79"/>
    </marker>
  </defs>
  
  <!-- Background -->
  <rect width="1400" height="950" fill="#FAFBFC"/>
  
  <!-- Header -->
  <rect x="0" y="0" width="1400" height="80" fill="url(#headerGrad)"/>
  <text x="700" y="35" font-family="Arial, sans-serif" font-size="24" font-weight="bold" fill="white" text-anchor="middle">Rights Item Micro-Process (Per Permission Item)</text>
  <text x="700" y="60" font-family="Arial, sans-serif" font-size="14" fill="#B8D4E8" text-anchor="middle">Repeatable unit-of-work for each permission item – the level at which agentic workflows operate</text>
  
  <!-- Input Section -->
  <rect x="30" y="100" width="280" height="400" rx="10" fill="url(#inputGrad)" stroke="#1565C0" stroke-width="2" filter="url(#shadow)"/>
  <rect x="30" y="100" width="280" height="40" rx="10" fill="#1565C0"/>
  <rect x="30" y="130" width="280" height="10" fill="#1565C0"/>
  <text x="170" y="127" font-family="Arial" font-size="14" font-weight="bold" fill="white" text-anchor="middle">INPUTS</text>
  
  <text x="50" y="165" font-family="Arial" font-size="11" font-weight="bold" fill="#1565C0">Item Identifiers</text>
  <text x="60" y="182" font-family="Arial" font-size="10" fill="#333">• Item ID (mandatory)</text>
  <text x="60" y="196" font-family="Arial" font-size="10" fill="#333">• Previous Edition Item ID</text>
  
  <text x="50" y="220" font-family="Arial" font-size="11" font-weight="bold" fill="#1565C0">Usage Context (Project-Level)</text>
  <text x="60" y="237" font-family="Arial" font-size="10" fill="#333">• Book Title, Edition</text>
  <text x="60" y="251" font-family="Arial" font-size="10" fill="#333">• ISBN / Manifestation ID</text>
  <text x="60" y="265" font-family="Arial" font-size="10" fill="#333">• Format (Print &amp; Electronic)</text>
  <text x="60" y="279" font-family="Arial" font-size="10" fill="#333">• Distribution (Worldwide)</text>
  <text x="60" y="293" font-family="Arial" font-size="10" fill="#333">• Publication date, Deadline</text>
  <text x="60" y="307" font-family="Arial" font-size="10" fill="#333">• Print run (if applicable)</text>
  
  <text x="50" y="331" font-family="Arial" font-size="11" font-weight="bold" fill="#1565C0">Item Description</text>
  <text x="60" y="348" font-family="Arial" font-size="10" fill="#333">• Caption Title</text>
  <text x="60" y="362" font-family="Arial" font-size="10" fill="#333">• Figure/Table label</text>
  <text x="60" y="376" font-family="Arial" font-size="10" fill="#333">• Chapter Title/Number</text>
  <text x="60" y="390" font-family="Arial" font-size="10" fill="#333">• Chapter Author</text>
  
  <text x="50" y="414" font-family="Arial" font-size="11" font-weight="bold" fill="#1565C0">Source Citation</text>
  <text x="60" y="431" font-family="Arial" font-size="10" fill="#333">• Full "Source" string</text>
  <text x="60" y="445" font-family="Arial" font-size="10" fill="#333">• Author, title, journal/book</text>
  <text x="60" y="459" font-family="Arial" font-size="10" fill="#333">• Year, volume/issue, pages</text>
  <text x="60" y="473" font-family="Arial" font-size="10" fill="#333">• DOI/URL</text>
  
  <text x="50" y="497" font-family="Arial" font-size="11" font-weight="bold" fill="#1565C0">Classification &amp; Budget</text>
  
  <!-- Arrow from Input to Process -->
  <line x1="310" y1="300" x2="350" y2="300" stroke="#1F4E79" stroke-width="2" marker-end="url(#arrowhead)"/>
  
  <!-- Process Steps Column -->
  <rect x="360" y="100" width="680" height="750" rx="10" fill="url(#processGrad)" stroke="#F9A825" stroke-width="2" filter="url(#shadow)"/>
  <rect x="360" y="100" width="680" height="40" rx="10" fill="#F9A825"/>
  <rect x="360" y="130" width="680" height="10" fill="#F9A825"/>
  <text x="700" y="127" font-family="Arial" font-size="14" font-weight="bold" fill="white" text-anchor="middle">MICRO-PROCESS STEPS</text>
  
  <!-- Step 1 -->
  <g transform="translate(380, 155)">
    <rect width="300" height="55" rx="8" fill="white" stroke="#F57F17" stroke-width="1.5"/>
    <circle cx="20" cy="27" r="14" fill="#F57F17"/>
    <text x="20" y="32" font-family="Arial" font-size="12" font-weight="bold" fill="white" text-anchor="middle">1</text>
    <text x="45" y="22" font-family="Arial" font-size="11" font-weight="bold" fill="#333">Ingest Item Data</text>
    <text x="45" y="40" font-family="Arial" font-size="10" fill="#666">From permission log / manuscript / ELSA export</text>
  </g>
  
  <line x1="530" y1="210" x2="530" y2="225" stroke="#F57F17" stroke-width="1.5" marker-end="url(#arrowDown)"/>
  
  <!-- Step 2 -->
  <g transform="translate(380, 230)">
    <rect width="300" height="55" rx="8" fill="white" stroke="#F57F17" stroke-width="1.5"/>
    <circle cx="20" cy="27" r="14" fill="#F57F17"/>
    <text x="20" y="32" font-family="Arial" font-size="12" font-weight="bold" fill="white" text-anchor="middle">2</text>
    <text x="45" y="22" font-family="Arial" font-size="11" font-weight="bold" fill="#333">Normalize &amp; Validate Source</text>
    <text x="45" y="40" font-family="Arial" font-size="10" fill="#666">Verify citation completeness &amp; accuracy</text>
  </g>
  
  <line x1="530" y1="285" x2="530" y2="300" stroke="#F57F17" stroke-width="1.5" marker-end="url(#arrowDown)"/>
  
  <!-- Step 3 -->
  <g transform="translate(380, 305)">
    <rect width="300" height="55" rx="8" fill="white" stroke="#F57F17" stroke-width="1.5"/>
    <circle cx="20" cy="27" r="14" fill="#F57F17"/>
    <text x="20" y="32" font-family="Arial" font-size="12" font-weight="bold" fill="white" text-anchor="middle">3</text>
    <text x="45" y="22" font-family="Arial" font-size="11" font-weight="bold" fill="#333">Classify Item</text>
    <text x="45" y="40" font-family="Arial" font-size="10" fill="#666">Creator type, Source type, Permission required?</text>
  </g>
  
  <line x1="530" y1="360" x2="530" y2="375" stroke="#F57F17" stroke-width="1.5" marker-end="url(#arrowDown)"/>
  
  <!-- Step 4 -->
  <g transform="translate(380, 380)">
    <rect width="300" height="55" rx="8" fill="white" stroke="#F57F17" stroke-width="1.5"/>
    <circle cx="20" cy="27" r="14" fill="#F57F17"/>
    <text x="20" y="32" font-family="Arial" font-size="12" font-weight="bold" fill="white" text-anchor="middle">4</text>
    <text x="45" y="22" font-family="Arial" font-size="11" font-weight="bold" fill="#333">Identify Rights Holder</text>
    <text x="45" y="40" font-family="Arial" font-size="10" fill="#666">Determine owning entity &amp; contact info</text>
  </g>
  
  <line x1="530" y1="435" x2="530" y2="450" stroke="#F57F17" stroke-width="1.5" marker-end="url(#arrowDown)"/>
  
  <!-- Step 5 -->
  <g transform="translate(380, 455)">
    <rect width="300" height="55" rx="8" fill="white" stroke="#F57F17" stroke-width="1.5"/>
    <circle cx="20" cy="27" r="14" fill="#F57F17"/>
    <text x="20" y="32" font-family="Arial" font-size="12" font-weight="bold" fill="white" text-anchor="middle">5</text>
    <text x="45" y="22" font-family="Arial" font-size="11" font-weight="bold" fill="#333">Select Mode of Contact</text>
    <text x="45" y="40" font-family="Arial" font-size="10" fill="#666">STM / CCC / Web form / Email</text>
  </g>
  
  <line x1="530" y1="510" x2="530" y2="525" stroke="#F57F17" stroke-width="1.5" marker-end="url(#arrowDown)"/>
  
  <!-- Step 6 -->
  <g transform="translate(380, 530)">
    <rect width="300" height="70" rx="8" fill="white" stroke="#F57F17" stroke-width="1.5"/>
    <circle cx="20" cy="35" r="14" fill="#F57F17"/>
    <text x="20" y="40" font-family="Arial" font-size="12" font-weight="bold" fill="white" text-anchor="middle">6</text>
    <text x="45" y="22" font-family="Arial" font-size="11" font-weight="bold" fill="#333">Generate Outbound Request</text>
    <text x="45" y="40" font-family="Arial" font-size="10" fill="#666">Pre-fill usage details, identifiers</text>
    <text x="45" y="55" font-family="Arial" font-size="10" fill="#666">Include source ref &amp; image if required</text>
  </g>
  
  <line x1="530" y1="600" x2="530" y2="615" stroke="#F57F17" stroke-width="1.5" marker-end="url(#arrowDown)"/>
  
  <!-- Step 7 -->
  <g transform="translate(380, 620)">
    <rect width="300" height="55" rx="8" fill="white" stroke="#F57F17" stroke-width="1.5"/>
    <circle cx="20" cy="27" r="14" fill="#F57F17"/>
    <text x="20" y="32" font-family="Arial" font-size="12" font-weight="bold" fill="white" text-anchor="middle">7</text>
    <text x="45" y="22" font-family="Arial" font-size="11" font-weight="bold" fill="#333">Execute Request</text>
    <text x="45" y="40" font-family="Arial" font-size="10" fill="#666">Submit via portal or send email; capture evidence</text>
  </g>
  
  <!-- Parallel Steps 8-10 on right -->
  <!-- Step 8 -->
  <g transform="translate(700, 230)">
    <rect width="320" height="55" rx="8" fill="white" stroke="#E65100" stroke-width="1.5"/>
    <circle cx="20" cy="27" r="14" fill="#E65100"/>
    <text x="20" y="32" font-family="Arial" font-size="12" font-weight="bold" fill="white" text-anchor="middle">8</text>
    <text x="45" y="22" font-family="Arial" font-size="11" font-weight="bold" fill="#333">Track Pending State</text>
    <text x="45" y="40" font-family="Arial" font-size="10" fill="#666">Chaser schedule; escalate if overdue</text>
  </g>
  
  <!-- Loop indicator for Step 8 -->
  <path d="M 1020 285 C 1050 285, 1050 240, 1020 230" stroke="#E65100" stroke-width="1.5" fill="none" stroke-dasharray="4,2"/>
  <text x="1060" y="260" font-family="Arial" font-size="9" fill="#E65100">Follow-up</text>
  <text x="1060" y="272" font-family="Arial" font-size="9" fill="#E65100">loop</text>
  
  <!-- Step 9 -->
  <g transform="translate(700, 380)">
    <rect width="320" height="70" rx="8" fill="white" stroke="#E65100" stroke-width="1.5"/>
    <circle cx="20" cy="35" r="14" fill="#E65100"/>
    <text x="20" y="40" font-family="Arial" font-size="12" font-weight="bold" fill="white" text-anchor="middle">9</text>
    <text x="45" y="22" font-family="Arial" font-size="11" font-weight="bold" fill="#333">Process Inbound Response</text>
    <text x="45" y="40" font-family="Arial" font-size="10" fill="#666">Extract grant terms, restrictions</text>
    <text x="45" y="55" font-family="Arial" font-size="10" fill="#666">Credit line requirements; determine if acceptable</text>
  </g>
  
  <!-- Step 10 -->
  <g transform="translate(700, 530)">
    <rect width="320" height="70" rx="8" fill="#E8F5E9" stroke="#2E7D32" stroke-width="2"/>
    <circle cx="20" cy="35" r="14" fill="#2E7D32"/>
    <text x="20" y="40" font-family="Arial" font-size="12" font-weight="bold" fill="white" text-anchor="middle">10</text>
    <text x="45" y="22" font-family="Arial" font-size="11" font-weight="bold" fill="#2E7D32">Update System-of-Record</text>
    <text x="45" y="40" font-family="Arial" font-size="10" fill="#333">Update log fields &amp; RPC status</text>
    <text x="45" y="55" font-family="Arial" font-size="10" fill="#333">Upload licenses/evidence</text>
  </g>
  
  <!-- Connecting arrows on right side -->
  <line x1="680" y1="257" x2="700" y2="257" stroke="#E65100" stroke-width="1.5" marker-end="url(#arrowhead)"/>
  <line x1="860" y1="285" x2="860" y2="370" stroke="#E65100" stroke-width="1.5" marker-end="url(#arrowDown)"/>
  <line x1="860" y1="450" x2="860" y2="520" stroke="#E65100" stroke-width="1.5" marker-end="url(#arrowDown)"/>
  
  <!-- Connect step 7 to step 8 -->
  <path d="M 680 647 L 720 647 L 720 300 L 860 300 L 860 285" stroke="#F57F17" stroke-width="1.5" fill="none"/>
  
  <!-- Decision Diamond for Permission Required -->
  <g transform="translate(700, 155)">
    <polygon points="70,0 140,40 70,80 0,40" fill="#FFF3E0" stroke="#E65100" stroke-width="1.5"/>
    <text x="70" y="35" font-family="Arial" font-size="10" font-weight="bold" fill="#E65100" text-anchor="middle">Permission</text>
    <text x="70" y="48" font-family="Arial" font-size="10" font-weight="bold" fill="#E65100" text-anchor="middle">Required?</text>
  </g>
  
  <line x1="680" y1="182" x2="700" y2="195" stroke="#F57F17" stroke-width="1.5"/>
  <line x1="840" y1="195" x2="990" y2="195" stroke="#2E7D32" stroke-width="1.5"/>
  <text x="910" y="188" font-family="Arial" font-size="10" font-weight="bold" fill="#2E7D32">NO</text>
  <line x1="770" y1="235" x2="770" y2="230" stroke="#E65100" stroke-width="1.5"/>
  <text x="785" y="220" font-family="Arial" font-size="10" font-weight="bold" fill="#E65100">YES</text>
  
  <!-- No Permission Needed path -->
  <g transform="translate(930, 155)">
    <rect width="90" height="50" rx="5" fill="#C8E6C9" stroke="#2E7D32" stroke-width="1.5"/>
    <text x="45" y="25" font-family="Arial" font-size="10" font-weight="bold" fill="#2E7D32" text-anchor="middle">Mark as</text>
    <text x="45" y="40" font-family="Arial" font-size="10" font-weight="bold" fill="#2E7D32" text-anchor="middle">"No Perm"</text>
  </g>
  
  <!-- Output Section -->
  <rect x="1060" y="100" width="310" height="400" rx="10" fill="url(#outputGrad)" stroke="#2E7D32" stroke-width="2" filter="url(#shadow)"/>
  <rect x="1060" y="100" width="310" height="40" rx="10" fill="#2E7D32"/>
  <rect x="1060" y="130" width="310" height="10" fill="#2E7D32"/>
  <text x="1215" y="127" font-family="Arial" font-size="14" font-weight="bold" fill="white" text-anchor="middle">OUTPUTS</text>
  
  <text x="1080" y="165" font-family="Arial" font-size="11" font-weight="bold" fill="#2E7D32">Updated Permission Log</text>
  <text x="1090" y="182" font-family="Arial" font-size="10" fill="#333">• Status: Resolved/Pending</text>
  <text x="1090" y="196" font-family="Arial" font-size="10" fill="#333">• Applied Date</text>
  <text x="1090" y="210" font-family="Arial" font-size="10" fill="#333">• Chaser Dates</text>
  <text x="1090" y="224" font-family="Arial" font-size="10" fill="#333">• Resolved Date</text>
  
  <text x="1080" y="252" font-family="Arial" font-size="11" font-weight="bold" fill="#2E7D32">RPC Rights Item Record</text>
  <text x="1090" y="269" font-family="Arial" font-size="10" fill="#333">• Permission Status updated</text>
  <text x="1090" y="283" font-family="Arial" font-size="10" fill="#333">• Restrictions captured</text>
  <text x="1090" y="297" font-family="Arial" font-size="10" fill="#333">• Invoice amount (if paid)</text>
  
  <text x="1080" y="325" font-family="Arial" font-size="11" font-weight="bold" fill="#2E7D32">Documentation (RPC)</text>
  <text x="1090" y="342" font-family="Arial" font-size="10" fill="#333">• License PDF</text>
  <text x="1090" y="356" font-family="Arial" font-size="10" fill="#333">• Email confirmation (.msg)</text>
  <text x="1090" y="370" font-family="Arial" font-size="10" fill="#333">• CCC license</text>
  <text x="1090" y="384" font-family="Arial" font-size="10" fill="#333">• Screenshots</text>
  
  <text x="1080" y="412" font-family="Arial" font-size="11" font-weight="bold" fill="#2E7D32">Credit Line</text>
  <text x="1090" y="429" font-family="Arial" font-size="10" fill="#333">• Exact attribution captured</text>
  <text x="1090" y="443" font-family="Arial" font-size="10" fill="#333">• Change report if modified</text>
  
  <text x="1080" y="471" font-family="Arial" font-size="11" font-weight="bold" fill="#2E7D32">Cost Data (if applicable)</text>
  <text x="1090" y="488" font-family="Arial" font-size="10" fill="#333">• Invoice amount</text>
  
  <!-- Arrow from Process to Output -->
  <line x1="1020" y1="565" x2="1050" y2="565" stroke="#2E7D32" stroke-width="2"/>
  <line x1="1050" y1="565" x2="1050" y2="300" stroke="#2E7D32" stroke-width="2"/>
  <line x1="1050" y1="300" x2="1060" y2="300" stroke="#2E7D32" stroke-width="2" marker-end="url(#arrowhead)"/>
  
  <!-- Human Decision Points Box -->
  <rect x="30" y="520" width="280" height="180" rx="10" fill="#FFEBEE" stroke="#C62828" stroke-width="2" filter="url(#shadow)"/>
  <rect x="30" y="520" width="280" height="35" rx="10" fill="#C62828"/>
  <rect x="30" y="545" width="280" height="10" fill="#C62828"/>
  <text x="170" y="545" font-family="Arial" font-size="12" font-weight="bold" fill="white" text-anchor="middle">⚠ HUMAN DECISION POINTS</text>
  
  <text x="50" y="580" font-family="Arial" font-size="10" fill="#333">• "Permission required?" when attribution</text>
  <text x="60" y="594" font-family="Arial" font-size="10" fill="#333">is ambiguous</text>
  <text x="50" y="614" font-family="Arial" font-size="10" fill="#333">• Fee approval &amp; budget exceptions</text>
  <text x="50" y="634" font-family="Arial" font-size="10" fill="#333">• Replacement/deletion decisions</text>
  <text x="60" y="648" font-family="Arial" font-size="10" fill="#333">for unresponsive rightsholders</text>
  <text x="50" y="668" font-family="Arial" font-size="10" fill="#333">• License scope interpretation</text>
  <text x="60" y="682" font-family="Arial" font-size="10" fill="#333">(formats, editions, translations)</text>
  
  <!-- Legend -->
  <rect x="30" y="720" width="280" height="85" rx="5" fill="white" stroke="#E0E0E0" stroke-width="1"/>
  <text x="170" y="742" font-family="Arial" font-size="11" font-weight="bold" fill="#333" text-anchor="middle">LEGEND</text>
  <rect x="50" y="755" width="20" height="15" fill="#FFF8E1" stroke="#F9A825" stroke-width="1"/>
  <text x="80" y="766" font-family="Arial" font-size="10" fill="#333">Processing Steps</text>
  <rect x="170" y="755" width="20" height="15" fill="#FFEBEE" stroke="#C62828" stroke-width="1"/>
  <text x="200" y="766" font-family="Arial" font-size="10" fill="#333">Human Decisions</text>
  <rect x="50" y="780" width="20" height="15" fill="#E8F5E9" stroke="#2E7D32" stroke-width="1"/>
  <text x="80" y="791" font-family="Arial" font-size="10" fill="#333">Final Output</text>
  <rect x="170" y="780" width="20" height="15" fill="#E3F2FD" stroke="#1565C0" stroke-width="1"/>
  <text x="200" y="791" font-family="Arial" font-size="10" fill="#333">Inputs</text>
  
  <!-- Automation Note Box -->
  <rect x="360" y="860" width="680" height="50" rx="5" fill="#E8EAF6" stroke="#3F51B5" stroke-width="1"/>
  <text x="700" y="885" font-family="Arial" font-size="11" font-weight="bold" fill="#283593" text-anchor="middle">💡 AUTOMATION NOTE: This micro-process is the foundational unit for agentic workflow design.</text>
  <text x="700" y="900" font-family="Arial" font-size="10" fill="#333" text-anchor="middle">Steps 1-7 are automation-friendly. Steps 8-10 require hybrid human+automation handling.</text>
  
  <!-- Footer -->
  <text x="700" y="935" font-family="Arial" font-size="11" fill="#666" text-anchor="middle">Publishing Services – Permissions Seeking | Rights Item Micro-Process | December 2025</text>
</svg>
